<?xml version="1.0" encoding="UTF-8" standalone="no"?>
<svg width="1444px" height="407px" viewBox="0 0 1444 407" version="1.1" xmlns="http://www.w3.org/2000/svg" xmlns:xlink="http://www.w3.org/1999/xlink">
    <!-- Generator: Sketch 50.2 (55047) - http://www.bohemiancoding.com/sketch -->
    <title>lines</title>
    <desc>Created with Sketch.</desc>
    <defs>
        <linearGradient x1="50%" y1="-127.414292%" x2="50%" y2="87.223066%" id="linearGradient-1">
            <stop stop-color="#6146D7" offset="0%"></stop>
            <stop stop-color="#27253F" offset="100%"></stop>
        </linearGradient>
    </defs>
    <g id="unbreakable" stroke="none" stroke-width="1" fill="none" fill-rule="evenodd">
        <g id="lines" transform="translate(1.000000, 2.000000)">
            <g transform="translate(721.000000, 202.500000) scale(-1, 1) translate(-721.000000, -202.500000) ">
                <polygon id="fill" fill="url(#linearGradient-1)" fill-rule="nonzero" opacity="0.545459692" points="0 151.369847 30.6808511 118.776822 61.3617022 48.8974801 92.0425531 83.2191781 122.790486 10.818966 153.449115 89.241359 171.244384 137.228539 185.3408 118.519299 214.893073 166.774908 249.850967 118.776822 276.127659 134.066035 306.808511 77.3377344 306.808511 134.066035 328.5 106.554279 368.170212 1.78654614 395.638255 23.4921966 429.531916 77.3377344 460.212766 137.228539 490.893617 68.6142697 521.574469 10.818966 544.95814 40.8157145 580.251406 106.554279 644.297872 142.289816 674.978723 139.814562 705.659575 229.346573 736.340425 187 770.484559 114.898121 805.622549 202.5 828.382978 174.859849 859.06383 118.519299 889.744681 77.3377344 920.425531 28.5009283 951.106383 49.0037265 981.787234 1.67951798 1012.46808 77.5057769 1043.14894 25.9186787 1073.82979 0 1073.82979 83.2191781 1117.30498 137.228539 1135.19149 34.6835072 1165.87234 23.4921966 1196.55319 54.6324088 1228.72494 1.78654614 1234.21239 79.1966686 1257.91489 106.554279 1288.59575 25.9186787 1319.2766 83.2191781 1349.95745 46.1898783 1380.93861 68.6142697 1396.76687 54.6324088 1442 151.369847 1442 399.452055 1436.45385 405 5.54615385 405 0 399.452055"></polygon>
                <polyline id="line" stroke="#6146D7" stroke-width="2" opacity="0.502361067" points="0 151 30.6808511 117.369847 61.3617022 49.0037265 92.0425531 83.4 122.723404 10.8424739 214.765958 166.5 250.001274 118.776822 276.127659 134.066035 306.808511 77.5057769 328.5 106.785804 368.170212 1.79042801 398.851064 12.9327344 429.531916 77.5057769 460.212766 137.526715 490.893617 68.7633575 521.574469 10.8424739 552.255319 28.5628563 613.617022 117.624873 644.297872 142.598989 674.978723 140.118356 705.659575 228.84932 736.340425 187 770.677971 114.42466 796.886404 151 828.382978 175.239791 859.06383 118.776822 889.744681 77.5057769 920.425531 28.5628563 951.106383 49.0037265 981.787234 1.6831673 1012.46808 77.5057769 1043.14894 24.7515334 1073.82979 0 1104.51064 8.33192423 1135.19149 34.7588689 1165.87234 23.5432414 1196.55319 54.7511163 1227.23404 1.79042801 1257.91489 106.785804 1288.59575 25.9749958 1319.2766 83.4 1349.95745 46.7377255 1380.93861 68.7633575 1396.68666 54.7511163 1442 150.785804"></polyline>
            </g>
        </g>
    </g>
</svg>